<svg xmlns="http://www.w3.org/2000/svg" viewBox="0 0 400 400"><g transform="matrix(2,0,0,2,0,0)"><g transform="matrix(0.5,0,0,0.5,0,0)"><g transform="matrix(2,0,0,2,0,0)"><g fill="#000000"><path d="M130.2 38.44c1.67.91 3.5-.5 2.59-.32a3.85 3.85 0 0 1-2.19-.34 17.48 17.48 0 0 0 .56-3.85c-.32-3.15-1.55 4.13-.96 4.51zm4.8 1.42c-1 1-2.24 1.73-1.21 1.62 1.38-.14 2.31-1.51 1.81-2.23-.4.26-.14.14-.6.61zM133.84 33c-.3.36 0 1.17.07 1.53a.4.4 0 0 0 .79-.11c-.11-.9-.33-2.04-.86-1.42zm-5.58 1.84c-.33-2.3-1-1.31-.94-.93.08 1.54 1.05 1.71.94.93zm4.98-3.43c5.48.53-.18-1.83-.48-.08zM98.68 72.55c-1.14.4-.91 1.61.5 1.08a34 34 0 0 1 9-2.25c0 8.12-.41 11.27.06 11.49.51-.2.93-11.09.9-12-.09-1.68-8.67 1.04-10.46 1.68zM89 83.79c-1.47 3.15-4.07 7.45-.88 8.54 1.79.6 9.37 0 7.92-4.07-1.28-3.64-5.34-8.02-7.04-4.47zm50.32 21.11c-1.35-.39-13.19-2.62-13.77-2.05-1.26 1.27 5.73.55 13.55 2.82a.4.4 0 0 0 .22-.77zm1.11-5.77A65.64 65.64 0 0 0 130 97.51a.4.4 0 0 0 .1.8 67 67 0 0 1 10.11 1.59.4.4 0 0 0 .22-.77zm-77.91-57.3c-1.27.14-1.66-.22-1.77.06-.27 1.85 4.57-.14 1.77-.06zm-4.2-7.53c0-2.49-.8-1.75-.8 0a.4.4 0 0 0 .8 0zm7.09-.94a.4.4 0 0 0 .79-.13c-.37-2.41-1.08-1.69-.79.13z"></path><path d="M177 128.56c7.47-5.72 7.22-16.24 7-16.58 2.87-3 2.95-11.7 2.12-13.49-1.12-2.43 3.88-23.85-4.28-29.82.72-.32 2.09-1.14 2.19-2.21.18-2.11-1.81-2.45-3.33-3.35-6.35-3.73-6.75-12-19.19-15.06-.46-.85-.56-1-.93-1.62 9 .62 7.84-4.31 6.29-5.53a12.88 12.88 0 0 0-3.11-1.29c3.79-1.59 3.68-6.36-1.2-5.92-.58.05 1.3-1.49-.23-3.46a3.4 3.4 0 0 0-3.24-1.53c0-3.35-1.61-4.71-3.52-4.71 2.81-4.12-.94-8.71-6.2-6.16 1.25-2.9-2.08-8.12-9.71-2.07-.48-2.1-7.12-4.29-7.84-1.22-.37 1.57-3-2.82-7.8.78-1.31 1-2 2.65-.46 3.17-4.77.35-6.6 4.79-2.9 5.75.8.21-1.52.75-1.15 3.73.28 2.28 2.3 3.59 3.95 2.34.55-.41.39-.5.34-.07a1.26 1.26 0 0 0 1.2 1.36 14.57 14.57 0 0 0 .69 2.57c-3.62 0-5.77 3.12-4.81 4.64 1.11 1.74 3.06.58.62 1.84-4.73 2.45-3.54 6.51-.64 6.48s1-1.1 1.45 1.8c.28 1.91 3.38 3.78 6 1.38.74.89.89 1.46 1.79 1.92-7.51 5-4.89 7.43-14.63 17.25-1.13 1.15-1.46.72-2 1.25s.2 3.71 3 3.48c-3.07 9 0 6.23-4.44 6.7-.1 0 1.17-13.13 1-14.94-.1-.89-.28-.87-10.32 1.42.33-6.7.26-20.55-.32-20.69-.1 0-7.33 0-7.33-.19-.16-.64.31-3.39.18-3.91-.12-.34-.52-.33-.84-.54-3.88-2.58 1-1.17 1.37-1.55.54-.6 0-6.65 1-6.65 1 .53.2 5.59.58 6.07 1.23 1.08.39-4.63 1.72-4.47.73.14-.1 4.26.18 4.94.91 1.3.59-2 1.67-3.07 1.26-.61-.06 9-.2 9.2.51.4 2.75-11.66-.19-9.76-.86.56 0-.24-.63-1.57-.35-.69-1.35-.8-1.91.18-.53-3.5-2.28-2.65-2.55-.19-.26 4.64-.15 3.94-.23 4.77-2.65-1-4.63 1.35-.74 2.7.61.21 0 2.43.19 3.7 0 .21.11.14-.41.09-2.14-.22-8.54 18.09-10.51 20.72 2.73 4 1.82 4.59 1.57 3.93-2.71-5.6-14-17.33-26.55-21.57-1-.32-.76 0-1-1.3-.73-1.07 9.94 4.42 9-11.68 4.51.15 3.85-6.91.08-7.11 2.49-3.05 1.71-5.56-.8-8.23-1.11-8-9.71-8.18-17.36-5.26-1.81.69-2.13 1.77-3.06 3.37-.9.14-1.31-.51-3.05.49-5.29 3.05-4 11.67.38 15.15-.79 2.29-.1 4.83 2.88 4.62 0 9.58.87 7.36-3.69 8.15C9.64 53.36.56 92.76 14.65 105.84c.78.73-2.64 5.62 3.46 9.09a34.2 34.2 0 0 0 3.12 12.84c1.39 3 1.44 2.35 1.3 2.79C16.59 149.46 5.27 183.2 5.09 184c-.65 2.89 2.19 3.73 3.5 1.51.58-1 16.59-44.3 18.65-49.94a33.41 33.41 0 0 0 2.91 2.07c-.43 7.69-2.89 41-2.45 42.92a2.13 2.13 0 0 0 4.12.3c.15-.5 3.35-22.51 5.29-39.73 11.5 4.69 24.53 5.26 26.88 5.29 2 39.91 1.7 37.51 5.92 36.29.74-.22.76 0 .88-4.73 2 1.72 10.8 8.63 13.47 9.15.8.15 1.54-1.45.49-3.3-6.1-10.73-6.77-5.78-1.16-12.87.63 1.53 3.07 7.75 4 7.9 2.35.26 1.45 5.37 2.89 5.42 2.56.1 15.83-.82 16.87-2.29.44-.61-.51-1.92-1.73-2.47-13.24-4.83-7.85 4.17-8.86-24.18 0-.72 5.71-7.33 8.43-15.73 1.51-4.67 0-6.69.75-9 1.65-5.45-1.27-4.31 4.74-4.62 1.28 2.48 2.23 1 2.93 4a20.2 20.2 0 0 0 4.32 8.71 50.8 50.8 0 0 1 3-13.39c1-.09-.13-1.06-2.41 14 .09.1-.29 27.44.9 28a10.6 10.6 0 0 0 2.89.5c-.24.19-.08 6.78-.19 6.78 0 .25-8.1 2.88-9 6.95-.12.89-.14 1.26.79 1.26 3.09-.17 13.48-2.76 14.16-2.76 0 1.11-.17 1.2.88 1.19.89 0 2 0 2.29-.41.27-.67-.35-11.4-.19-12.65 0-.1-.17 0 2.27 0 .1 14.27.21 12.92 1.21 13.21 4.27.73 3.49 1.67 5-23.35 3.86 3.5 2.14 3.54 7 .42.66.83 4 4.78 4 4.81-1.6 3.12-4.38 9.12-1.94 11.73.69.59 1.5-.49 8.37-9.56 2.7-3.58 1.29-.18 2.9-1.56 2.91-2.49 2-1-6-10.3 4.69-3.39 4.18-2.43.47-5.93-20.22-19.13-12.92-5.89 12.69-14.36.62 6.44 5.32 46.37 6.27 47.06.65.47 2.8.2 3.47-.1 1.15-.52-.28-14.84-2.38-40.78 8.45 23.08 16.89 45.16 16.89 45.26 1.12 2.37 3.91 1.9 3.76-.45-.03.04-15.16-46.45-18.03-55.71zm-17.7 34.78c-.47-.49-.58-.86-1-.72-.79.4-8.28 11-9.36 11.68-2.22-3.28 2.37-10.72 2.14-11.18-.14-.19 2.82-1 6.16-4.83 3.82 4.42 3.76 3.65 2.05 5.05zm-2.47-5.58a20.19 20.19 0 0 1-6 5.09c-3-3.32-3.41-3.81-4-4.53 8.23-5.21 5.65-5.66 9.99-.56zm26.88-45.17c-.17 7.69-3.06 12.6-6.88 15.43-3.59-11.57-2.63-8.06-2.12-11.85 10-2.69 9.01-4.69 8.99-3.58zm1.53-15.44c-2.09-2.33-5.31-3-8.3-3.69 2.49-1.27 5.42-2.85 6.16-4.83 1-3.28-.53-11.17-1.15-13.09-2.57-8.05-4.25-5.49-1-6.52 6.58 4.44 4.97 18.07 4.28 28.13zm-39.11.16c-5.82.67-2.67 2.06-4 2.84-.94.54-1.26 1.67.26 2 1.12.25 1 0 .48.33-1.12.67-1.41 2.29 2.78 1.87-.48.92-2.89 5.55-3.55 6.37-.24.3-16.63-.72-27.45-2 .09-.1 10.61-13.35 13.16-15.62.24-.11 18 2 18.1 2a3.18 3.18 0 0 0 .21 2.21zm-3.07 6.29c-.75-1 4.29-.77 3.15-1.86-.1-.06-9.72-.53.4-1.65a.39.39 0 0 0-.07-.77c-1.8.05-2.92.38-3.28 0-.59-1.15 2.8-1.14 3.37-1.35 1-.27-.81-2 .15-3 .5-.45 1.95 2.42 2.16 2.61 2.91 1.93 14.42-15.79 21.45-16.45 1.74-.17-3-.38-4.94 1.49-4-11.32-3.9-10.92-3.87-11.36.13-1.74 2.09-2.48 3.78-2.2s2.05 1.38 3.87 1.39a6.94 6.94 0 0 0 5-2.09 12 12 0 0 0 4.05.91c2.26 4.84 3.05 5.31 3.91 10.82.45 2.87 1.37 7.73-.65 9.6-4.25 3.94-32.73 15.88-38.49 13.91zm5.33-8.23c2 .26 1.7 0 1.31.87-.53 1.11-.16.76-1.32-.87zM127 42.82c-5.23-1.62.24-7.76 0-5.81 0 .1-.29.19-.37.24-1 .57-2.26 5 2.18 5.18 2.4.11-.26.88-1.81.39zm.24-6c-1.5-4-1.56-3.37-1.89-5.2 2-.23 4.16-.07 2.86-.82-.71-.41-1.41.07-1.09-.2 3-2.85 1.93-5.71 2.53-4.16a4.41 4.41 0 0 0 7.35 1.23c.84 2.23 1.78 3.39 4.43 3.65 1.77.17 1.49-.05 2.16-.72 2.57-2.57 5 2.5 1.88 4-1.14.4.49 5.54 3.54 4.23 2.28-1 1.66-5.73-.88-5.92-.94-.07-.46-.31-.31-.33 3.3-.47 4.7 5.23 1.78 6.85-2.68 1.49-5.89-1.62-4.69-4.73-2.15.29-2.14 3.1-1 4.95.14.22-4.49.4-4.06 3.78.29 1.46 2 1.79 3.47 1.76-3.13 7.3.86 8.32 4.32 4.85a10.55 10.55 0 0 0 1.22 2.61c1.63 2.07-15.87 7.24-15.36-.82a19.75 19.75 0 0 0 2.8-1.91 9.8 9.8 0 0 0-.07-3c-.45-2.61-4.8 1.08-9.03-10.12zm12.39 34.37c-2-1.54-5-13.08-5.58-15.85 7.63 4.5 14.51-1.41 14.12-.56-1.17 2.46-7.36 14.66-8.58 16.39zm.77 6.81c-3.65.41-4.59-4.5-1.79-5.7 5.46-2.02 7.06 5.09 1.79 5.7zm-8.76-25.27s.9-.46 1.51-.8c-.1 2.27.97 2.68-1.51.78zM114.2 72.61c-1.36-2.06.42-.83 4.87-5.82 3.47-3.88 7.1-12.21 11.51-14 .25.22 1.59 1.27 2.87 2.16.75 4.85 3.3 14 5.18 16.36.09.11-4.45 1.57-1.35 6.32 5.44 4.36 9.9-5 3.8-6.25-1.43-.28-.64 1.66 6.22-13.62 2-4.5.95-3 2.63-4.26 1.45.79 5.48 1.06 5.48-3.26 3.4 2.81 7.67 1.74 6.55-1.26 10.2 2.77 11.43 8.84 16.1 13.12 3 2.78 5.42 2.48 5.18 4.26 0 .87-2.9 3.11-7.4 1.85-1.54-.43-1.71-.75-2-.39a6.19 6.19 0 0 1-5.33 1.94c-.85-.22-1.33-.73-2.53-1.16-1.63-.47-4 0-4.73 1.7-2.36-9.5-1.71-10.76-2.25-11.3-2.1 2.14 4.89 21.22 5.84 24.12-1.7 1-6.1 5.37-7.49 6.76-.35.35-7.62-1.31-31.77-1.43 2.08-4.15 5.55-6.79 5.73-7.29.06-.33-4.07-4.48-3.31-9.06 1.15-7 4.15-10.86 2.88-9.71-2.4 3.74-4.27 7.93-3.34 12.35a3.32 3.32 0 0 1-3 .45c-2-.75-2.48-3.79-7.8-1.6a2.29 2.29 0 0 1-2.54-.98zm2.89 1.54c1.82-.31 3.22-1 4.43-.25 1 .62 2.9 3.48 6.1 1.68.88 1.29.57 3.24 2.79 5.48-9.35 9.24-3.67 11.88-19.54 11.65.24-2.45.79-8.31 1.06-11.46 4.9-.58 1.73 2.69 5.16-7.1zm-4.9-7.91c0 4.58-2.09 26.83-2.6 31.38-4.73 1.58-35.79 10.31-46.56 12 .22-6.47 2.12-25.55 3.86-31.79C72.25 75.19 107 67 112.19 66.24zm-71 33.31c3-2 18.06-5.29 22.67-6.35 0 .24-.17 1.46-.2 1.7-24.13 4.93-19.3 6.02-22.44 4.65zm27-44.91c-5.7 13.25-6 9.34-.89 10.93.53.17-7.34 16.8-7.37 17.35-1.21 23.9-.74-5.12 1.62-29 .33-3.29-.99-3.92 6.65.72zm-6.48 34.62a.4.4 0 0 1-.8 0c-.01-2.26.8-3.44.8 0zM58 49.64c4.57 1.57 3.49.21 2.78 7.53 0-.21-.93-.76-3.07-2.94.96-.87.54-3.32.29-4.59zm.12 10.16c.68-.17.78-2 .84-3.26 2.26 2.1 1.78.54 1.28 6.43-1.34-3.51-1.33-3.3-1.51-3.38-.25.5-1.58 1.12-2.27.57-.07.71.31 8.9.37 11.21-16.35-28.69-5.61-7.25-2.46-13.05 2.91 1.82 1.88 1.95 3.77 1.48zM66.87 30c3-.06 3.46 5.64.13 5.77s-3.41-5.71-.13-5.77zM64 26.11c.24.79.68 2.4 1 3.87-1.59 1.33-.6 2.4-1.78 2.58C63 32 63 31.68 62.7 32c0 .83.27.6-.85.81-1.89.34-.48.14-1.63-1.18A3.57 3.57 0 0 0 54 32.85c-.87 0-3.56-.1-4-.17-.6-1.77-1.68-8.08-1.69-8.16 7.49 4.64 13.78 3.21 15.69 1.59zm-3.6 9c-.62 1.86-4.59 2.53-5.59-.45-1.59-4.66 7.5-5.37 5.57.45zm-16.21 3.71c-1.3-.67-1.63-4.7.65-5 1.48-.18 2.27 1.46 2.86 1.73 1.52.68 2.46-.27 2.46-1.95h3.72c-.21 5.2 8 5 7.13.09 2.5-.11 1.37-1.71 2.59 3.7-.8.39-2.16.57-2.22.79.28.44 3 .19 3-.87-.31-1.81-.54-2.9-.7-3.5a4.26 4.26 0 0 0 2.26 2.56c.06.77.07 1.35.09 2.37.31 12.22-9 7.58-9.12 9 0 .5 1.19 5 .35 5.79-2.48-.6-10.48-5.69-10.73-6.35-.01-11.49-.03-7.18-2.34-8.36zm11.42 15A38 38 0 0 1 53 59.06C46.35 54.61 45.59 52 43.31 48c5.37-.92-.01.09 12.3 5.83zm-13-5.52c18.68 32 16.77 26.41 16.41 31.6-2.46-1.52-15.71-9.86-17.34-11.18.39-1.16 4.31-4.74 4.53-5.4s-11.89-12.7-11.85-12.71a53.42 53.42 0 0 1 8.2-2.3zm-14.43 45c1.63.39 1.25.66 1.6.09 4.33-7 6.3-20.12 6.49-20.28.58.71-.9 12.56-5.86 20-.94 1.41-.95 0 1.78 3.21C40 94.41 53.51 93 64.06 91.89c0 .26-.08.68-.11 1-6.85 1.37-28.09 4.8-23.69 9.08 1.38 1.17 21.7 9 22.69 8 10.31-1.32 44.6-10.61 47.12-11.66.27-.18.24.24.74-4.89 5.92.2 8 1 11.71-1.71a15 15 0 0 0 2.88-2.73c9.85.12 21.53.51 31.35 1.62-9.86 10.09-4.2 4.66-6.8 4.31-4.37-.6-22.31-2.25-22.2-2.08-.28-.39-13.24 14.53-14 15.91s28.18 3.3 28.8 2.65 3.47-6.12 4-7.09c5.08-.66 12-1.62 29.45-10.31 15.1 3.78 10.33 10.81 3 13.56-2.56 1-27.13 8.1-60.24 10.57-60.54 4.51-96.89-8-94.93-8 .49 0 .71-.64 1.56-2.22 4.28 3.77 15.14 7.09 12.45 3.61a5.75 5.75 0 0 0 1.68 0c1.06-.24 1.13-1.25.28-2-.43-.37-.49-.25-.11-.28 1.66-.12 1.76-1.41.47-2.14-1.74-1-4.8-.89-5.68-2.49-.64-1.16 1.64-2.33.85-3.6-.55-.88-1.43-.52-2.29.06-1.74 1.21-1.11 1.31-2.36.16 2.28-1.59 3-.81 2.63-1.94A8.35 8.35 0 0 0 27.85 94c-8.31-1.7-11.25 4-11.51 4-.56-1.51 4.5-6.42 11.79-4.72zm6.12 12.16c1.19 1.49 6.09 1.77 6 2.85-.42 1.14-5.95-1.64-5.7-.17.16.44.48.21 2.44.89 3.85 1.35 3.64 2.75-2.16.79-1.07-.36-1.22 0-1.05.39s3.76 1.16 3.56 2c-.21.65-8.61-1.8-11.8-4.63a18.68 18.68 0 0 1 4.85-6.13c.81.79 1.15 1.15 1.35 1.08s3.08-2.59 3.19-1c.02 1.08-2.29 1.97-.73 3.91zm-15.76 9.7c8.81 4.87 9.12-.79 4.29 14.61a33 33 0 0 1-4.34-14.63zM7.83 185.23c-.36.7-2 1.23-1.58-1 1.83-9.46 14.43-43 20.26-65.86 2.2.69 3.68 1.1 5.89 1.67-1.65 4.59-24.16 64.56-24.57 65.19zm23.58-6.55c-.45 3-2.76 3.17-3-.06-.28-4.29 1.14-15.52 2.1-40.73a45.91 45.91 0 0 0 6.14 3.11c-.39 3.05-3.92 28.91-5.24 37.68zm38.38 3.24c-3.44 1.32-2.74 2.6-5.25-35.5.47 0 3.33.05 5.87-.17-.29 18.29-.23 33.15-.62 35.67zm-42.35-46.87c4.39-12-.31-4.89 12.09 1.12 11 5.33 20.92 6 33.17 5.83.58 1.64 1 2.87 1.09 3-11.74 2.16-35.19-1-46.35-9.95zm43.4 40.85c.59-34.59-1.48-29.31 3.22-30.12 1.87 5.17 2.79 7.62 3.44 9.37-6.46 17.49-6.24 16.62-5.6 17 .91.6.7-.24-1.06 3.75zm12.38-5.7a61.66 61.66 0 0 1-4 4.74 49.76 49.76 0 0 1-6.73-3.33c-.09-.06 4.28-13.07 5.2-16 4.97 13.39 5.64 14.45 5.53 14.59zm12.42 6.1c-.5.15-5.88 1.44-7.89 1.77-24.9-51.31-2.23-32.65-32.47-37.56-7-1.15-16.59-4.08-22.05-9.25-4.2-4-3.42-2.5-.44-11.1 1.6.32 23.52 6.29 58.88 6.29 5.11 13.11 4.7 45.55 3.97 49.85zm1-22.48c-.49-7.35-.93-18.47-4.19-27.38 11.45.06 10.09-.4 10.56.19 6.09 7.63-.84 19.37-6.36 27.19zm8.55-23.67c-1.41-4.81-3.84-3.65.64-3.89a26.13 26.13 0 0 1-.63 3.89zm7.89-2.68c-2.5-1.81-1.17-1.47-.1-1.53.08 1.6.22 1.61.11 1.53zm17.36 53c-2.07 0-1.67.48-1.72-.69-.07-1.45-11.37 2.33-15 2.33.34-3 6-5.68 8.76-6.89 0 0 .63 0 2.76.23 6.9.73 5.21-2.33 5.21 5.02zm-8-12.55c4.7.4 8.19.21 8.18.31-.17 1.25 0 6.45-.2 6.49a20 20 0 0 1-7.79-.07c-.15-7.1-.07-6.31-.19-6.73zM17.63 113.7c-1.6-1-2.91-1.89-2.15-6.9 13.22 11.2 91 21.73 161.47 2.11 8-2.23 9.18-6.33 9.17-6-.26 9.11-2.92 10.51-10.94 12.66-66.86 17.89-141.6 8.55-157.55-1.87zm116.71 66.88c-.26-1.67-.34-10.42-.36-12.38 2.1-.06 1.47 1.68 2.58-12.6.07.06 1-16.66 1.61-21.2.08-.63.34-.78.32 0 0 .5 0 1.16-.05 2-.83 23.23-2 19 .3 21-1.74 24.42-.94 24.5-4.4 23.18zm7.44-44.65c-.24 0 .17.31-3.14-2.71 2.15-.29 21-.4 30.57-7.85.81 2.27.62 1.74 2.07 5.73-8.53 3.59-20.51 5.25-29.5 4.83zm31.93 43.8c-.15-.18-5.41-37.91-6.39-46.5 5.34-1.7 3.58-3.16 6.34 4.4 2.61 40.06 4.34 44.25.05 42.1zm18.47 5.08c-.25-.44-23.52-62-25.1-66.7 2-.48 4.55-1.12 6.07-1.52 5.58 23 19.39 59.27 20.65 67.66.31 2.04-.88 1.93-1.62.56z"></path></g></g></g></g></svg>